<?xml version="1.0" encoding="UTF-8" standalone="no"?>
<!-- Generator: Adobe Illustrator 21.0.0, SVG Export Plug-In . SVG Version: 6.00 Build 0)  -->

<svg
   version="1.1"
   id="Layer_1"
   x="0px"
   y="0px"
   width="60.433331"
   height="64"
   viewBox="0 0 60.433331 64"
   enable-background="new 0 0 595.276 595.276"
   xml:space="preserve"
   sodipodi:docname="reshot-icon-christmas-elf-L5SPQYHFGR.svg"
   inkscape:version="1.1.1 (3bf5ae0d25, 2021-09-20)"
   xmlns:inkscape="http://www.inkscape.org/namespaces/inkscape"
   xmlns:sodipodi="http://sodipodi.sourceforge.net/DTD/sodipodi-0.dtd"
   xmlns:xlink="http://www.w3.org/1999/xlink"
   xmlns="http://www.w3.org/2000/svg"
   xmlns:svg="http://www.w3.org/2000/svg"><defs
   id="defs43" /><sodipodi:namedview
   id="namedview41"
   pagecolor="#505050"
   bordercolor="#eeeeee"
   borderopacity="1"
   inkscape:pageshadow="0"
   inkscape:pageopacity="0"
   inkscape:pagecheckerboard="0"
   showgrid="false"
   inkscape:zoom="4.8313723"
   inkscape:cx="51.641642"
   inkscape:cy="60.955766"
   inkscape:window-width="1920"
   inkscape:window-height="991"
   inkscape:window-x="-9"
   inkscape:window-y="-9"
   inkscape:window-maximized="1"
   inkscape:current-layer="Layer_1"
   fit-margin-top="0"
   fit-margin-left="0"
   fit-margin-right="0"
   fit-margin-bottom="0" />
<g
   id="g38"
   transform="matrix(0.1108311,0,0,0.1108311,-2.6689888,-1.0699071)">
	<defs
   id="defs3">
		<rect
   id="SVGID_53_"
   width="595.276"
   height="595.276"
   x="0"
   y="0" />
	</defs>
	<clipPath
   id="SVGID_2_">
		<use
   xlink:href="#SVGID_53_"
   overflow="visible"
   id="use5"
   x="0"
   y="0"
   width="100%"
   height="100%" />
	</clipPath>
	<g
   clip-path="url(#SVGID_2_)"
   id="g36">
		<path
   fill="#ffffff"
   d="m 492.795,162.102 c -10.178,11.779 -13.77,28.227 -12.41,43.735 0.394,4.491 1.203,9.047 3.394,12.987 5.508,9.91 18.954,13.427 29.771,10.03 10.817,-3.397 19.138,-12.266 24.901,-22.03 20.732,-35.124 -11.864,-83.829 -45.656,-44.722 z"
   id="path8" />
		<path
   fill="#ffffff"
   d="m 217.599,239.888 c 31.519,-13.126 67.323,-12.045 100.755,-5.113 33.432,6.932 65.435,19.389 98.303,28.634 8.462,2.38 17.298,4.564 25.961,3.078 8.663,-1.486 17.134,-7.61 18.612,-16.275 1.51,-8.855 -4.381,-17.192 -10.574,-23.698 -26.348,-27.68 -63.446,-43.158 -101.035,-50.045 -86.205,-15.794 -179.324,12.575 -242.081,73.749 -17.524,17.083 -45.961,70.216 1.453,56.067 40.364,-12.046 69.708,-50.197 108.606,-66.397 z"
   id="path10" />
		<path
   fill="#ed9191"
   d="m 250.327,158.619 c 50.791,-9.38 104.559,-7.227 152.329,12.414 4.977,2.046 10.309,4.324 15.559,3.141 7.034,-1.585 11.276,-8.705 17.467,-12.403 16.419,-9.805 41.194,6.49 55.377,-6.338 7.567,-6.844 7.515,-19.286 2.652,-28.255 -4.863,-8.969 -13.388,-15.267 -21.672,-21.224 C 447.043,87.979 421.786,70.366 396.28,53.122 374.67,38.512 352.105,23.845 326.454,19.103 c -21.085,-3.899 -42.83,-0.787 -63.783,3.768 -45.778,9.951 -92.239,28.356 -121.535,64.913 -11.952,14.915 -20.513,32.203 -28.978,49.341 -13.608,27.55 -25.227,78.91 22.152,61.085 38.885,-14.629 74.645,-31.951 116.017,-39.591 z"
   id="path12" />
		<path
   fill="#f7e5c1"
   d="m 471.64,346.853 c 27.717,4.037 55.816,-10.81 73.333,-32.666 -7.692,37.674 -19.397,80.64 -54.355,96.654 -21.848,10.009 -47.384,6.412 -70.662,0.442 -7.605,31.096 3.796,65.176 -7.142,95.262 -11.3,31.082 -42.934,49.175 -72.366,64.258 -19.571,10.029 -41.415,20.177 -62.746,14.828 -9.705,-2.434 -18.339,-7.918 -26.542,-13.647 C 187.343,527.419 136.435,457.29 134.802,379.47 c -5.424,11.839 -13.035,22.672 -22.334,31.788 -3.441,3.373 -7.399,6.65 -12.17,7.329 -6.593,0.938 -12.755,-3.294 -17.692,-7.764 -20.753,-18.789 -33.572,-46.077 -34.785,-74.046 21.225,-2.794 44.236,5.104 63.481,-4.274 9.151,-4.459 16.111,-12.296 23.104,-19.694 39.382,-41.656 89.738,-75.895 146.576,-83.353 41.836,-5.489 87.46,5.98 119.546,33.993 29.881,26.089 22.678,76.349 71.112,83.404 z"
   id="path14" />
		<g
   id="g34">
			<path
   fill="none"
   stroke="#000000"
   stroke-width="8.0256"
   stroke-miterlimit="10"
   d="m 340.864,169.224 c 25.953,5.413 52.394,11.162 75.222,24.642 22.828,13.48 41.823,36.245 43.825,62.68 0.571,7.541 -0.514,15.788 -5.741,21.253 -3.722,3.891 -9.046,5.831 -14.316,6.935 -38.769,8.123 -73.907,-21.785 -110.838,-36.107 -42.503,-16.482 -92.722,-11.512 -131.169,12.982 -35.676,22.729 -62.345,61.288 -103.251,72.062 -8.791,-30.48 -17.086,-65.245 -0.474,-92.27 7.162,-11.652 18.28,-20.373 30.055,-27.33 29.753,-17.579 64.252,-25.127 95.928,-38.942 21.77,-9.495 43.01,-22.187 66.704,-23.817 20.755,-1.428 41.01,5.843 60.542,13.003 21.648,7.936 43.295,15.871 64.943,23.807"
   id="path16" />
			<path
   fill="none"
   stroke="#000000"
   stroke-width="8.0256"
   stroke-miterlimit="10"
   d="m 527.347,141.903 c -14.818,2.937 -30.275,6.694 -41.415,16.898 -17.65,16.167 -18.194,47.18 -1.559,64.39 16.635,17.21 47.068,18.001 64.999,2.146 17.931,-15.855 21.083,-45.577 7.401,-65.217 -13.681,-19.64 -42.074,-27.086 -63.913,-17.29"
   id="path18" />
			<path
   fill="none"
   stroke="#000000"
   stroke-width="8.0256"
   stroke-miterlimit="10"
   d="m 111.852,132.226 c 16.73,-34.837 36.097,-73.212 72.055,-87.371 31.418,-12.372 81.883,-30.051 115.631,-31.141 63,-2.035 121.185,62.03 172.256,98.974 7.803,5.644 15.803,11.541 20.734,19.813 4.931,8.272 6.031,19.614 0.034,27.149 -9.441,11.863 -27.915,7.499 -42.714,4.203 -14.799,-3.296 -35.796,0.091 -36.865,15.215 -0.494,6.988 -7.841,11.892 -14.842,12.147 -7.001,0.255 -13.624,-2.914 -19.858,-6.112 -26.247,-13.464 -52.061,-28.987 -80.931,-35.044 -67.069,-14.073 -141.17,25.016 -192.506,65.09 -3.191,-27.156 -5.177,-57.551 7.006,-82.923 z"
   id="path20" />
			<path
   fill="none"
   stroke="#000000"
   stroke-width="8.0256"
   stroke-miterlimit="10"
   d="m 157.44,151.119 c -1.031,-9.405 7.952,-16.579 16.088,-21.407 41.69,-24.741 88.499,-40.811 136.593,-46.894"
   id="path22" />
			<path
   fill="none"
   stroke="#000000"
   stroke-width="8.0256"
   stroke-miterlimit="10"
   d="m 430.108,285.922 c -8.165,11.818 4.968,45.066 18.091,50.908 13.123,5.842 28.259,3.567 42.424,1.184 19.992,-3.364 39.983,-6.728 59.975,-10.092 -1.533,58.793 -67.145,106.525 -123.555,89.886 9.501,31.399 -0.517,66.534 -20.664,92.423 -20.147,25.889 -49.284,43.489 -79.719,55.73 -30.518,12.274 -67.559,18.972 -94.597,0.239 -12.649,-8.763 -21.35,-22.004 -29.732,-34.909 -26.298,-40.491 -53.255,-82.69 -59.965,-130.502 -4.236,17.386 -28.218,23.21 -44.155,15.074 -15.938,-8.136 -25.216,-24.992 -32.816,-41.193 -7.6,-16.201 -15.057,-33.48 -29.317,-44.29 39.077,0.149 48.485,40.272 106.999,-24.016"
   id="path24" />
			<path
   fill="none"
   stroke="#000000"
   stroke-width="8.0256"
   stroke-miterlimit="10"
   d="m 224.977,476.572 c 12.813,23.75 39.185,39.544 66.171,39.629 26.986,0.085 53.457,-15.543 66.419,-39.212"
   id="path26" />
			<path
   fill="none"
   stroke="#000000"
   stroke-width="8.0256"
   stroke-miterlimit="10"
   d="m 214.918,380.318 c -3.217,-13.662 -0.566,-28.603 7.153,-40.324 6.241,-9.477 17.707,-17.211 28.522,-13.777 9.063,2.878 14.369,12.819 14.822,22.317 0.454,9.498 -2.924,18.713 -6.251,27.621"
   id="path28" />
			<path
   fill="none"
   stroke="#000000"
   stroke-width="8.0256"
   stroke-miterlimit="10"
   d="m 311.234,379.839 c -1.76,-11.49 -3.483,-23.492 0.161,-34.53 3.644,-11.038 14.46,-20.647 25.935,-18.791 11.298,1.828 18.302,13.376 21.525,24.357 3.223,10.981 4.432,22.957 11.072,32.279"
   id="path30" />
			<path
   fill="none"
   stroke="#000000"
   stroke-width="8.0256"
   stroke-miterlimit="10"
   d="m 275.612,418.73 c 12.323,-0.006 24.647,-0.012 36.97,-0.018 -7.577,4.402 -16.929,5.639 -25.389,3.359"
   id="path32" />
		</g>
	</g>
</g>
</svg>
